<?xml version="1.0" standalone="no"?><!DOCTYPE svg PUBLIC "-//W3C//DTD SVG 1.1//EN" "http://www.w3.org/Graphics/SVG/1.1/DTD/svg11.dtd"><svg t="1750202574956" class="icon" viewBox="0 0 1024 1024" version="1.1" xmlns="http://www.w3.org/2000/svg" p-id="1516" xmlns:xlink="http://www.w3.org/1999/xlink" width="200" height="200"><path d="M84.5824 393.3184a15.36 15.36 0 0 1-15.36-15.36V348.672a15.36 15.36 0 0 1 30.72 0v29.2864a15.36 15.36 0 0 1-15.36 15.36z" fill="#4C35D3" p-id="1517"></path><path d="M105.1648 766.4128a35.84 35.84 0 0 1-35.84-35.84v-292.864a15.36 15.36 0 0 1 30.72 0v292.7616a5.12 5.12 0 0 0 2.7648 4.6592 5.12 5.12 0 0 0 5.4272-0.3584l102.0416-71.2704a15.36 15.36 0 0 1 8.8064-2.7648h471.04a79.872 79.872 0 0 0 79.7696-79.7696v-380.416a79.8208 79.8208 0 0 0-79.9744-79.7184H179.6608a79.8208 79.8208 0 0 0-79.7184 79.7184V255.488a15.36 15.36 0 0 1-30.72 0V200.5504A110.5408 110.5408 0 0 1 179.6608 90.112h510.2592a110.5408 110.5408 0 0 1 110.4896 110.4384v380.416a110.592 110.592 0 0 1-110.4896 110.4896h-465.92l-98.304 68.5056a35.84 35.84 0 0 1-20.5312 6.4512z" fill="#4C35D3" p-id="1518"></path><path d="M918.272 940.1856a36.096 36.096 0 0 1-20.1728-6.1952l-95.8464-65.024h-147.6096a15.36 15.36 0 1 1 0-30.72h152.32a15.36 15.36 0 0 1 8.6016 2.6624l99.7888 67.6352a5.12 5.12 0 0 0 8.1408-4.3008V406.016a79.4624 79.4624 0 0 0-60.5696-77.3632v273.6128a152.7808 152.7808 0 0 1-152.6272 152.576h-476.16v8.7552a74.752 74.752 0 0 0 74.6496 74.6496H573.44a15.36 15.36 0 1 1 0 30.72H308.5824a105.472 105.472 0 0 1-105.3696-105.3696v-24.1152a15.36 15.36 0 0 1 15.36-15.36h491.52a122.0096 122.0096 0 0 0 121.9072-121.856V311.0912a15.36 15.36 0 0 1 4.7104-11.1104 15.872 15.872 0 0 1 11.2128-4.2496 110.08 110.08 0 0 1 106.2912 110.2848v498.2272a35.84 35.84 0 0 1-35.84 35.84z" fill="#4C35D3" p-id="1519"></path><path d="M222.7712 453.0688a61.0304 61.0304 0 1 1 61.0304-61.0304 61.0816 61.0816 0 0 1-61.0304 61.0304z m0-91.3408a30.3104 30.3104 0 1 0 30.3104 30.3104 30.3104 30.3104 0 0 0-30.3104-30.3104zM429.5168 453.0688A61.0304 61.0304 0 1 1 490.496 392.0384a61.0816 61.0816 0 0 1-60.9792 61.0304z m0-91.3408a30.3104 30.3104 0 1 0 30.2592 30.3104 30.3616 30.3616 0 0 0-30.2592-30.3104zM636.1088 453.0688a61.0304 61.0304 0 1 1 61.0304-61.0304 61.0816 61.0816 0 0 1-61.0304 61.0304z m0-91.3408a30.3104 30.3104 0 1 0 30.3104 30.3104 30.3104 30.3104 0 0 0-30.3104-30.3104z" fill="#FF4D7C" p-id="1520"></path></svg>