<?xml version="1.0" standalone="no"?><!DOCTYPE svg PUBLIC "-//W3C//DTD SVG 1.1//EN" "http://www.w3.org/Graphics/SVG/1.1/DTD/svg11.dtd"><svg t="1748506280741" class="icon" viewBox="0 0 1024 1024" version="1.1" xmlns="http://www.w3.org/2000/svg" p-id="24924" xmlns:xlink="http://www.w3.org/1999/xlink" width="200" height="200"><path d="M265.3 394.2c-1.3 0.2-2.5 0.4-3.7 0.4-12.6 0-23.5-9.3-25.4-22l-26.7-180.3v-0.5c-1.2-9.3-9.3-16.3-18.5-16.3H98c-14.1 0-25.7-11.5-25.7-25.7S83.8 124 97.9 124h92.9c35.1 0 64.9 26.1 69.5 60.8L286.9 365c2 14.1-7.6 27.2-21.6 29.2z" fill="#6F9DFB" p-id="24925"></path><path d="M758.1 646.4H306.8c-16.4 0-30.2-12-32.8-28.1l-46.5-303.1h571.3c20.3 0 35.8 18.1 32.8 38.2L791 618.2c-2.5 16.2-16.5 28.2-32.9 28.2z" fill="#F4476B" p-id="24926"></path><path d="M405.9 563.1c-14 0-25.6-11.5-25.6-25.6V415c0-14 11.5-25.6 25.6-25.6 14 0 25.6 11.5 25.6 25.6v122.4c0 14.2-11.5 25.7-25.6 25.7zM529.7 563.1c-14 0-25.6-11.5-25.6-25.6V415c0-14 11.5-25.6 25.6-25.6 14 0 25.6 11.5 25.6 25.6v122.4c0 14.2-11.4 25.7-25.6 25.7zM653.6 563.1c-14 0-25.6-11.5-25.6-25.6V415c0-14 11.5-25.6 25.6-25.6 14 0 25.6 11.5 25.6 25.6v122.4c-0.1 14.2-11.6 25.7-25.6 25.7z" fill="#FFFFFF" p-id="24927"></path><path d="M136.6 124.1v51.4H97.9c-14.1 0-25.7-11.5-25.7-25.7-0.1-14.2 11.5-25.8 25.7-25.8l38.7 0.1z" fill="#FBE66B" p-id="24928"></path><path d="M829.2 322.1c-7.6-8.9-18.7-13.9-30.4-13.9H285.5l-18.4-124.1c-5.1-38.1-38.1-66.9-76.5-66.9H97.7c-18 0-32.7 14.7-32.7 32.7s14.7 32.7 32.7 32.7h92.9c5.8 0 10.7 4.3 11.5 9.9 0 0.5 0.1 1.1 0.2 1.5L229 373.6c0.2 1.4 0.5 2.7 0.8 3.7l0.1 0.5c0.1 0.2 0.1 0.4 0.2 0.6l32.7 213.3c-15.2 4.8-28.9 14-39 26.5-11.7 14.4-18.1 32.6-18.1 51.2 0 44.8 36.5 81.3 81.3 81.3h24.7c-1 5-1.5 10.2-1.5 15.5 0 44.6 36.2 80.8 80.8 80.8 21.6 0 41.9-8.4 57.2-23.8 15.2-15.3 23.6-35.5 23.6-57 0-5.3-0.5-10.4-1.5-15.4h131.8c-1 5-1.5 10.1-1.5 15.4 0 44.6 36.2 80.8 80.8 80.8s80.8-36.2 80.8-80.8c0-43.7-34.9-79.4-78.3-80.7-0.3 0-0.6-0.1-0.9-0.1H287.1c-8.8 0-16-7.2-16-16s7.2-16 16-16h471c19.7 0 36.8-14.7 39.8-34.1l40.6-264.8c1.8-11.7-1.6-23.5-9.3-32.4z m-615-134.6c0.3 0.3 0.6 0.7 0.8 1-0.2-0.4-0.5-0.7-0.8-1z m1.8 3.3c-1.7-12.7-12.6-22.2-25.4-22.2H97.7c-10.3 0-18.7-8.4-18.7-18.7s8.4-18.7 18.7-18.7h92.9c31.5 0 58.4 23.5 62.7 54.8l18.1 122.2h-37.9l-17.3-116.8c-0.1-0.2-0.1-0.4-0.2-0.6z m222.3 622.5C425.7 826 408.9 833 391 833c-36.8 0-66.8-30-66.8-66.8s30-66.8 66.8-66.8 66.8 30 66.8 66.8c0 17.8-6.9 34.5-19.5 47.1z m309.9-47.1c0 36.8-30 66.8-66.8 66.8s-66.8-30-66.8-66.8c0-6.9 1.1-13.5 3-19.8 0.1-0.2 0.2-0.5 0.2-0.7 8.7-26.8 33.9-46.3 63.6-46.3 36.8 0 66.8 30 66.8 66.8zM636 699.4c-13.4 9.1-23.9 22.1-29.8 37.4h-140c-6-15.3-16.5-28.3-29.8-37.4H636z m-378.9-30c0 16.5 13.5 30 30 30h58.5c-13.3 9.1-23.8 22.1-29.8 37.3H287c-37.1 0-67.3-30.2-67.3-67.3 0-28.7 18.7-54.3 45.3-63.7l2.1 13.7c1.4 8.4 5.2 15.8 10.6 21.5-12 4-20.6 15.2-20.6 28.5z m567.6-317.1l-40.6 264.8c-2 12.7-13.1 22.3-26 22.3H306.8c-12.9 0-23.8-9.3-25.9-22.2l-45.3-295h563.1c7.6 0 14.8 3.3 19.8 9.1 5.1 5.8 7.3 13.5 6.2 21z" fill="#2C6AE5" p-id="24929"></path><path d="M391 736.8c-16.2 0-29.4 13.2-29.4 29.4s13.2 29.4 29.4 29.4 29.4-13.2 29.4-29.4-13.2-29.4-29.4-29.4z m0 44.8c-8.5 0-15.4-6.9-15.4-15.4s6.9-15.4 15.4-15.4 15.4 6.9 15.4 15.4-6.9 15.4-15.4 15.4zM652 766.2c0 16.2 13.2 29.4 29.4 29.4s29.4-13.2 29.4-29.4-13.2-29.4-29.4-29.4S652 750 652 766.2z m44.8 0c0 8.5-6.9 15.4-15.4 15.4s-15.4-6.9-15.4-15.4 6.9-15.4 15.4-15.4 15.4 6.9 15.4 15.4z" fill="#2C6AE5" p-id="24930"></path><path d="M519.8 270v-96c0-5 4-9.1 9.1-9.1h1.8c5 0 9.1 4 9.1 9.1v96c0 5-4 9.1-9.1 9.1h-1.8c-5.1-0.3-9.1-4.2-9.1-9.1zM584.2 264.6l48-83.2c2.4-4.3 8-5.7 12.2-3.3l1.6 0.8c4.3 2.4 5.7 8 3.3 12.2l-48 83.2c-2.4 4.3-8 5.7-12.2 3.3l-1.6-0.8c-4.3-2.3-5.7-7.9-3.3-12.2zM475.2 264.6l-48-83.2c-2.4-4.3-8-5.7-12.2-3.3l-1.6 0.8c-4.3 2.4-5.7 8-3.3 12.2l48 83.2c2.4 4.3 8 5.7 12.2 3.3l1.6-0.8c4.3-2.3 5.7-7.9 3.3-12.2z" fill="#92E7E6" p-id="24931"></path></svg>